<?xml version="1.0" standalone="no"?>
<!DOCTYPE svg PUBLIC "-//W3C//DTD SVG 20010904//EN"
 "http://www.w3.org/TR/2001/REC-SVG-20010904/DTD/svg10.dtd">
<svg version="1.0" xmlns="http://www.w3.org/2000/svg"
 width="246.000000pt" height="246.000000pt" viewBox="0 0 246.000000 246.000000"
 preserveAspectRatio="xMidYMid meet">
<metadata>
Created by potrace 1.11, written by Peter Selinger 2001-2013
</metadata>
<g transform="translate(0.000000,246.000000) scale(0.100000,-0.100000)"
fill="#000000" stroke="none">
<path d="M2040 1832 c0 -12 -306 -319 -390 -391 -41 -36 -80 -70 -86 -75 -6
-6 -22 -19 -35 -29 -13 -9 -51 -37 -84 -62 -84 -62 -226 -138 -318 -171 l-78
-27 -46 24 c-69 35 -149 97 -226 174 -67 67 -214 254 -239 304 -7 14 -26 48
-42 74 l-28 48 -33 -26 c-19 -14 -38 -25 -43 -25 -6 0 -12 -3 -14 -7 -1 -5
-43 -35 -93 -68 -50 -33 -134 -89 -187 -126 l-97 -66 38 -59 c106 -161 301
-342 477 -440 93 -52 221 -102 337 -132 92 -23 121 -26 292 -26 170 -1 284 6
305 19 4 2 22 7 41 10 52 9 223 68 231 80 4 5 8 7 8 2 0 -20 236 117 360 209
99 73 268 233 335 317 l38 48 -29 31 c-16 17 -47 50 -69 72 -22 23 -100 106
-174 184 -122 130 -151 156 -151 134z"/>
</g>
</svg>
